<svg width="288" height="72" viewBox="0 0 288 72" fill="none" xmlns="http://www.w3.org/2000/svg">
<path fill-rule="evenodd" clip-rule="evenodd" d="M156.38 24.6624C159.434 24.6624 162.117 25.3562 164.429 26.7444C166.785 28.0892 168.616 29.9551 169.925 32.3411C171.277 34.6837 171.953 37.3516 171.953 40.345C171.953 40.9088 171.91 41.4946 171.823 42.1018C171.779 42.6657 171.67 43.3166 171.495 44.054L148.382 44.1106C148.55 44.759 148.772 45.3695 149.051 45.9417C149.793 47.3298 150.839 48.4147 152.192 49.1956C153.544 49.9331 155.115 50.302 156.904 50.302C158.517 50.302 159.979 50.0413 161.287 49.5208C162.596 48.9568 163.731 48.1327 164.691 47.0481L169.729 52.0588C168.202 53.8373 166.326 55.182 164.102 56.093C161.921 57.004 159.543 57.4602 156.969 57.4602C153.654 57.4602 150.709 56.7654 148.135 55.3772C145.561 53.9456 143.51 51.9936 141.984 49.5208C140.5 47.0479 139.759 44.2277 139.759 41.0608C139.759 37.9374 140.479 35.161 141.918 32.7317C143.401 30.2589 145.409 28.3069 147.939 26.8752C150.469 25.4002 153.283 24.6624 156.38 24.6624ZM156.38 31.7551C154.679 31.7551 153.195 32.1461 151.93 32.927C150.665 33.6645 149.684 34.7274 148.986 36.1155C148.741 36.6179 148.542 37.1566 148.389 37.7317L163.688 37.6877C163.515 36.9415 163.282 36.2649 162.989 35.6594C162.421 34.4016 161.571 33.4468 160.437 32.7961C159.346 32.1022 157.994 31.7552 156.38 31.7551Z" fill="white"/>
<path fill-rule="evenodd" clip-rule="evenodd" d="M220.452 24.6624C223.681 24.6624 226.56 25.4003 229.09 26.8752C231.664 28.3069 233.693 30.2589 235.176 32.7317C236.659 35.1611 237.401 37.9162 237.401 40.9963C237.401 44.0764 236.659 46.8748 235.176 49.3909C233.693 51.8636 231.664 53.8378 229.09 55.3127C226.56 56.7442 223.702 57.4602 220.518 57.4602C217.334 57.4601 214.455 56.7441 211.881 55.3127C209.351 53.8378 207.322 51.8636 205.795 49.3909C204.312 46.8748 203.571 44.0764 203.571 40.9963C203.571 37.9162 204.312 35.1611 205.795 32.7317C207.278 30.2589 209.307 28.3069 211.881 26.8752C214.455 25.4003 217.312 24.6624 220.452 24.6624ZM220.452 32.6663C218.882 32.6663 217.486 33.0353 216.265 33.7727C215.043 34.4668 214.084 35.4433 213.386 36.7014C212.688 37.9594 212.339 39.4124 212.339 41.0608C212.339 42.7092 212.688 44.1842 213.386 45.4856C214.084 46.7437 215.043 47.7422 216.265 48.4797C217.486 49.1738 218.882 49.5207 220.452 49.5208C222.066 49.5208 223.485 49.1739 224.706 48.4797C225.971 47.7422 226.931 46.7437 227.585 45.4856C228.283 44.1842 228.632 42.7092 228.632 41.0608C228.632 39.4124 228.283 37.9594 227.585 36.7014C226.887 35.4433 225.928 34.4668 224.706 33.7727C223.485 33.0352 222.066 32.6663 220.452 32.6663Z" fill="white"/>
<path d="M111.611 37.8674L128.399 11.0618H134.68V56.8088H125.846V29.4622L114.591 47.4377H108.571L97.3811 29.5657V56.8088H88.4817V11.0618H94.7639L111.611 37.8674Z" fill="white"/>
<path d="M184.519 56.8088H175.947V9.76001H184.519V56.8088Z" fill="white"/>
<path d="M199.377 56.8088H190.805V9.76001H199.377V56.8088Z" fill="white"/>
<path d="M252.581 44.4241L259.165 25.3782H265.381L271.964 44.4241L278.404 25.3782H287.041L275.262 56.8088H269.046L262.273 38.3694L255.5 56.8088H249.35L237.505 25.3782H246.143L252.581 44.4241Z" fill="white"/>
<path d="M62.9746 71.999C46.2073 68.5951 33.5871 53.772 33.5869 36C33.5869 18.2278 46.2072 3.40389 62.9746 0V71.999Z" fill="#1D8DFF"/>
<path d="M33.5859 69.1973C21.1758 63.3011 12.5947 50.6528 12.5947 35.999C12.595 21.3454 21.1757 8.69677 33.5859 2.80078V69.1973Z" fill="#1D8DFF"/>
<path d="M12.5947 63.6885C4.87726 56.9543 0.000131345 47.047 0 36C2.69456e-05 24.9528 4.87712 15.0448 12.5947 8.31055V63.6885Z" fill="#1D8DFF"/>
</svg>
